<svg xmlns="http://www.w3.org/2000/svg" version="1.1" xmlns:xlink="http://www.w3.org/1999/xlink" width="512" height="512" x="0" y="0" viewBox="0 0 68 68" style="enable-background:new 0 0 512 512" xml:space="preserve" class=""><g><path fill="#ffd55f" d="M59.7 21.8c-1-3-1.4-4.7-.8-7.6.2-1.1.6-2.6-.4-3.5-.2-.2-.2-.5 0-.7s.5-.2.7 0c.7.6 1.1 1.7 1 2.9-.2 2.5-1.4 2.8.5 8.6.1.3-.1.5-.3.6-.4.1-.7 0-.7-.3z" opacity="1" data-original="#ffd55f"></path><path fill="#f86089" d="M26.5 57.7c-2.7 1.8-4.8 4.5-5.7 7.6-.1.3-.3.5-.5.7-.3.2-.7.3-1 .2-.8-.1-2.3-.2-2.7-1.2-.2-.3 0-1 .1-1.3.9-2.6 2.2-5 3.8-7.2 1.1-1.5 1.5-4.4 1.5-6.3v-.5c3.6 1.1 7.4 1.8 11.2 1.9-.3 3.5-3.6 6.2-6.7 6.1z" opacity="1" data-original="#f86089"></path><path fill="#f86089" d="M32.2 53.3c-9.5 3.8-11.6 4.9-14.6 4.8-2.7-.1-5.3-1.3-7-3.3-1.8-2-2.1-4-2.4-5.1-.3-1-.6-2.3-.1-2.9.9-1.3 3.4-.5 4.6-.3 4 .8 5.7 1.4 8.1 2.9 4.2 2.4 5 3 11.4 3.9z" opacity="1" data-original="#f86089"></path><path fill="#ff85ab" d="M57.1 50c-1.2 3.3-5.3 4.6-8.2 2.5-3.9 5.4-11.5 6.7-17 2.4-1.3-1-2.9-1.2-4.4-.8-2.3.6-4.8.4-6.9-.6-1.7-.8-3.1-2.1-4.9-2.5-1.3-.3-2.7-.1-4-.2-2.5-.3-4.8-2.8-5.7-5-.8-2-.8-4.3-.1-6 .2-.5.7-1 .8-1.5.2-.5-.2-1.4-.2-2.1 0-2 .9-3.9 2.4-5.2 1-.8 2.3-1.3 3-2.4 1.1-1.5.5-3.2 3.8-4.8 1-.5 1.9-1.4 3-.7.1-.1.1-.2.2-.3 1.2-1.7 3.2-2.2 5.3-2.5 10.8-1.6 10.3-1.9 14.9 1.1.7.5 1.3.9 2.1 1.2 2.7 1.1 6 .7 8.3 2.4 1.2 1 3.4 3.4 2.9 5-.1.4-.2.9.2 1.1.2.2.6.1.9.1 4-.3 7.1 4.7 8 8 1.2 5.1-.9 9.4-4.4 10.8z" opacity="1" data-original="#ff85ab"></path><path fill="#f86089" d="M22.5 38.8c-.4-.9-.2-2.4-1-2.7-.4-.1-1 .2-1.3.3-1.2.5-1.9.2-2.2-.1-.9-.9-.1-2.6-.6-3-.6-.5-1.9 1.5-3.3.9-1.2-.5-1-2.1-1.2-2.8-.1-.2-.3-.4-.5-.4-.3.1-.5-.1-.6-.3-.3-.9 1.4-1.1 2 .3.2.4.2.8.2 1.1.3 3.1 2.1-.9 3.9.3 1.1.8.2 2.6.7 3.1.3.3.9 0 1.1-.1 1.1-.5 1.6-.5 2.1-.3.6.2 1 .8 1.2 1.7.1.5.1 1.1.3 1.5.1.3.5.5.7.5.3-.1.5 0 .6.3.5.9-1.4 1.1-2.1-.3zM24.1 27.5c-.4-2.4-1.2-.8-2.5-1.1s-1.3-2-1.7-2.5c-.1-.2-.4-.3-.5-.3-.2.1-.5.1-.7-.2-.5-.8 1.2-1.4 2.1-.1.5.7.5 2 1.1 2.1.2 0 .4 0 .6-.1.3-.1.7-.2 1.1-.1 1.2.2 1.4 1.7 1.5 2.2 0 .3-.1.5-.4.6-.3 0-.5-.2-.6-.5zM15 46.8c-.8-.4-1.4-1.6-2-1.4-.4.1-.8.9-1.4 1.3-.6.3-1.6.5-3.1-.8-.7-.6-1.4-1.2-2-1-.3.1-.5-.1-.6-.3-.1-.3.1-.5.3-.6 1.2-.4 2.3.6 3 1.2.5.4 1.3 1.1 1.9.7.5-.3.8-1.2 1.7-1.4 1.3-.3 2.1 1.2 2.7 1.5.2.1.5.1.6 0 .1-.2.4-.3.7-.2.7.3-.5 1.7-1.8 1zM44 47.4c-1.2-1.8-.5-4.5 1.5-5.4.9-.4 1.7-.4 2.5-.7.6-.2 1.3-.7 1.2-1.3 0-.2-.1-.4-.2-.6-.1-.3-.2-.6-.2-1 0-1.1 1.1-1.8 2.1-1.9.8-.1 1.7-.1 2.3-.3.4-.2.8-.9.5-1.2-.2-.2-.2-.5 0-.7s.5-.2.7 0c.9.8.3 2.3-.8 2.8-.8.4-1.8.3-2.5.4-.6.1-1.3.5-1.3 1 0 .4.3.9.4 1.5.1 1.1-.9 2-1.9 2.3-.8.3-1.7.3-2.4.6-1.4.6-1.9 2.7-1.1 3.9.2.2.1.5-.1.7s-.5.1-.7-.1zM47.6 35.3c-.8 0-.7-1.1 0-1 .2 0 .4-.3.5-.7.1-.6.1-1.2.5-1.8.9-1.1 2.7-.4 3.2-1.1.1-.2.5-.3.7-.2s.3.5.2.7c-.4.7-1.3.8-2 .9-1.6.1-1.3.4-1.6 1.7-.2.8-.7 1.5-1.5 1.5zM31 40.9c-.2-.2-.1-.5.1-.7.8-.6 1.2-1.7.9-2.7-.1-.5-.4-.9-.5-1.6 0-1.1.8-1.9 1.6-2.5 1.5-1.3 1.4-1.7.8-2.6-.2-.4-.5-.9-.5-1.4 0-.9.6-1.5 1.2-1.8 1.2-.6 3.3-.4 4.8-1.7.7-.6 1.2-1.7.8-2.6-.1-.3 0-.5.3-.6s.5 0 .6.3c.5 1.2 0 2.7-1.1 3.7-1.8 1.6-3.9 1.3-5 1.8-.3.2-.7.5-.7.9 0 .6.8 1.3.9 2.1.1 1.2-.8 2-1.5 2.6-1.8 1.6-1.3 1.7-.8 3 .4 1.3-.1 2.9-1.2 3.8-.2.3-.5.2-.7 0zM57.3 49.2c-.8-.1-1.6-.7-2.1-1.4-1.8-2.6 1.1-4.1-1.1-4.8-.4-.1-1-.2-1.5-.6-1.3-.8-.8-2.5 0-2.1.3.1.4.4.2.7-.1.2.1.5.3.6.7.5 2.2.4 2.7 1.6.4.8-.1 1.7-.2 2.3-.2 1.2.6 2.5 1.8 2.7.3 0 .5.3.4.6 0 .3-.2.4-.5.4zM39.4 57.2c-.1-.1-.7.2-1.2-.3-1.8-2 1.3-3.1-.4-3.8-.7-.3-1.9-.1-2.5-1-.8-1.1.4-2.5.9-1.7.2.2.1.5-.1.7-.1 0-.1.2 0 .4.4.5 1.3.4 2.1.7.6.2 1 .7 1.1 1.3.2 1.3-1.3 1.7-.4 2.8h.1c1.8-.2 1.2 1.4.4.9zM8.2 39.3c.2-.2.5-.2.7-.1.4.4 1.1.3 1.5-.1l.1-.1c.3-.3.7-.7 1.3-.6.5.1.7.6.8.7.4.3 1.6-1.1 2.7-.4.2.1.3.5.2.7s-.5.3-.7.2-.7.1-.9.2c-1.8 1-2.2-.3-2.4-.4l-.5.5c-1.1 1.2-3.5.2-2.8-.6z" opacity="1" data-original="#f86089"></path><path d="M49.9 53.2c-1.2-.9-.8-2.1-1.3-3-.1-.2-.1-.5.2-.7.2-.1.5-.1.7.2.6 1.1.3 2.2 1.1 2.7 1 .7 2.8.6 3.8.1 1.4-.7 2.4-2.2 2.4-3.7 0-.3.2-.5.5-.5 3.7 0 5.5-7.2 2.2-12.1-1.6-2.5-4.3-4.2-7.2-4.6-.3 0-.5-.4-.4-.7.7-2-.4-4.5-1.9-5.8-1.6-1.4-4.2-1.6-6.5-1.6-1.7 0-4-.8-5.1 0-.2.2-.5.1-.7-.1s-.1-.5.1-.7c1.6-1.1 4.1-.2 5.7-.2 2.5 0 5.3.3 7.1 1.9 1.6 1.4 2.9 4 2.3 6.3 3 .6 5.7 2.4 7.4 4.9 3.4 5.2 1.9 13.1-2.6 13.6-.2 1.7-1.3 3.4-2.9 4.1-1.5.8-3.6.8-4.9-.1zM8 40.1c-3.3-2.7-2.5-8 1.4-9.6.3-.1.5-.2.8-.3 1.7-.5 2-.9 2.3-2.9.1-.4.1-.9.2-1.3.7-2.5 3.6-4.2 6.1-3.4.3.1.4.4.3.6-.1.3-.4.4-.6.3-.9-.3-2-.1-3 .4-3 1.7-1.4 4.4-3 6.2-.8.8-1.9 1-2.8 1.3-3.2 1.3-3.9 5.7-1.2 7.9.2.2.2.5.1.7-.1.3-.4.3-.6.1zM20.3 66c-.3.2-.7.3-1 .2-.8-.1-2.3-.2-2.7-1.2.8-.7 2.6.1 3.3.4.2.1.4.3.4.6z" fill="#000000" opacity="1" data-original="#000000"></path><ellipse cx="39.2" cy="32.8" fill="#ffffff" rx="2.4" ry="4.1" opacity="1" data-original="#ffffff"></ellipse><ellipse cx="44.3" cy="32.5" fill="#ffffff" rx="2.4" ry="4.1" opacity="1" data-original="#ffffff"></ellipse><ellipse cx="40.1" cy="32.7" rx="1.1" ry="1.9" fill="#000000" opacity="1" data-original="#000000"></ellipse><ellipse cx="43.9" cy="32.4" rx="1.1" ry="1.9" fill="#000000" opacity="1" data-original="#000000"></ellipse><path d="M39.2 41.8c-1.6 0-2.8-1.6-2.5-3 .1-.7 1.1-.5 1 .2-.1.8.4 1.6 1.2 1.8.7.2 1.6-.2 1.9-1 .1-.3.4-.4.6-.3.9.3-.4 2.3-2.2 2.3z" fill="#000000" opacity="1" data-original="#000000"></path><path fill="#3f54e8" d="M47.6 19.8c.1 1.2-.9 2.1-2 2.4C38 24.4 29.4 24.7 22 22c-1-.4-1.8-1.1-1.9-1.9-.4-2.3-.4-4.6-.1-6.6.1-1.1 1.2-2 2.7-2.2 6.9-.8 14.2-1.1 21.3-.5 1.6.1 2.9 1.1 3 2.3.1 2.3.4 4.6.6 6.7z" opacity="1" data-original="#3f54e8"></path><path fill="#2946d3" d="M47.6 19.8c.1.7-.2 1.3-.7 1.7-8.5-1.9-17.7 2.7-27-7.1 0-.3 0-.6.1-.9.1-1.1 1.2-2 2.7-2.2 6.9-.8 14.2-1.1 21.3-.5 1.6.1 2.9 1.1 3 2.3.1 2.3.4 4.6.6 6.7z" opacity="1" data-original="#2946d3"></path><path fill="#5762ef" d="M59.4 10.4c-8.7 1.7-16.5 3.7-24.7 7.2-.5.2-1 .2-1.4 0-8.4-2.9-16.5-5.4-25.1-6.8-.2 0-.3-.4 0-.5 30.5-7.9 20.7-5.4 23.2-6 2.8-.8 9.5.6 18.3 2.9 3 .8 6.3 1.8 9.8 2.7.2.1.2.4-.1.5z" opacity="1" data-original="#5762ef"></path><path fill="#3f54e8" d="M59.4 10.4c-8.7 1.7-16.5 3.7-24.7 7.2-.5.2-1 .2-1.4 0-8.4-2.9-16.5-5.4-25.1-6.8-.2 0-.3-.4 0-.5l6.3-1.6c4 2.8 9.9 3.7 14.7 3.6 8.2-.3 15.7-3.5 20.5-5 3 .7 6.3 1.7 9.8 2.6.2.1.2.4-.1.5z" opacity="1" data-original="#3f54e8"></path><path fill="#ffd55f" d="M56.9 25.7c.9-.1 1.8-.6 2.3-1.4.5 1.7.5 2 .8 2.1.2 0 .4-.2.5-.3.3-.5.5-1 .8-1.5.2.4.5.8.8 1.2.5.7 1 .3.8-.5-.1-.3-.1-.7.2-.8.2.2.3.5.6.6s.6 0 .6-.3c0-.5-1.6-1.6-2-1.9-.6-.5-1.4-1.2-2.1-1.5-.5-.2-.6 0-.8.5-.6 1.3-1.6 2.5-2.5 3.8z" opacity="1" data-original="#ffd55f"></path><path fill="#ffd55f" d="M60 26.9c-.8-.1-.8-1.1-1-1.5-.6.5-1.3.8-2.1.9-.4 0-.7-.4-.4-.8.9-1.3 1.9-2.5 2.5-3.9.2-.5.5-1.1 1.4-.7.8.3 1.6 1.1 2.2 1.6s1.3.9 1.9 1.5c.1.1.4.4.4.8 0 .6-.8 1-1.4.7 0 .6-.2 1.1-.7 1.2-.6.1-1-.4-1.4-1-.1.2-.3.5-.4.7-.3.3-.6.5-1 .5zm-.3-2.7.4 1.5c.3-.4.5-.9.7-1.3s.7-.4.9-.1c.2.4.5.7.7 1.1-.2-.9.2-1.4.6-1.4-.3-.3-.7-.5-1-.8-.6-.5-1.4-1.2-2.1-1.5-.4.9-.6 1.4-1.7 2.9.2-.2.4-.3.5-.6.3-.3.9-.2 1 .2z" opacity="1" data-original="#ffd55f"></path><path d="M32.6 17.8 8 11.1c-.5-.1-.5-.8 0-1 2.9-1 6.2-2.1 9.5-2.8.2 0 .5.2.5.5.1.3-.1.5-.4.6-2.6.5-5.3 1.4-7.8 2.2l23.1 6.2c.3.1.4.3.4.6-.2.3-.4.4-.7.4zM47.8 6.7 32.6 4.2c-.3 0-.5-.3-.4-.6 0-.3.3-.5.6-.4l15.1 2.5c.3 0 .5.3.4.6 0 .2-.3.4-.5.4zM6.4 9.3l-3-1.7c-.3-.1-.4-.4-.2-.6.1-.2.4-.3.7-.2l3 1.7c.2.1.3.4.2.7-.2.2-.5.3-.7.1zM8.1 7.2 5.9 3.3c-.1-.2 0-.5.2-.7s.5-.1.7.2L9 6.7c.1.2.1.5-.2.7-.2.1-.5 0-.7-.2zM11.6 7.4c-.3 0-.5-.3-.5-.5l.3-4.7c0-.3.3-.5.5-.5.3 0 .5.3.5.5L12.1 7c0 .2-.2.5-.5.4z" fill="#000000" opacity="1" data-original="#000000"></path><path fill="#f86089" d="M14.7 52.1c-.2-.2-.1-.5.1-.7 1.1-.9 1.8-2.4 1.8-4.2 0-1.7-.6-3.3-1.1-4.9-.1-.3 0-.5.3-.6s.5 0 .6.3c.6 1.7 1.2 3.4 1.2 5.2 0 2.1-.8 4-2.2 5.1-.2.1-.5 0-.7-.2zM36.5 49.1c-.6-1-.5-2.3-1.2-2.8-.8-.6-2 .2-2.7.9-1 1.1-2.1 2.3-3.6 2-.9-.2-1.6-.9-2.1-1.5-1.1-1.2-1.4-1.3-2.8-1.2h-.9c-1.1 0-2.3-.6-2.3-1.8 0-.3.2-.5.5-.5s.5.2.5.5c0 .5.7.8 1.3.8.8 0 1.7-.2 2.6.1 1.5.5 2.2 2.4 3.4 2.6 1 .2 1.9-.9 2.7-1.7 1.1-1.2 2.8-2 4.1-1 1 .8.8 2.2 1.4 3 .6.9 2 .9 3 .5 1.2-.5 2.3-1.3 3.6-1.7 2.9-.9 4.9 1.5 3.9 2-.2.1-.5 0-.7-.2-.4-.9-1.8-1.1-2.9-.8-1.2.4-2.3 1.2-3.6 1.7-.5.2-3.3.4-4.2-.9zM20.7 34.5c-.2-.2-.3-.5-.1-.7s.5-.3.7-.1.6.2.9.1c1.6-.4-.2-2.6 2.9-3.4 1.3-.3 1.3-.4 1.5-.5.3-.2.5-.6.3-.9-.2-.2-.1-.5.1-.7.8-.6 1.6 1.3.2 2.4-.5.4-1.2.5-1.8.7-1.7.5-1.1 1.2-1.6 2.3s-2.1 1.5-3.1.8z" opacity="1" data-original="#f86089"></path><path fill="#f86089" d="M24.9 45.7c-.1-.8.4-1.4.9-2 .7-.8.8-1 .5-1.7-.1-.2-.2-.4-.2-.6-.1-.4.1-.8.3-1.1.5-.5 1.3-.3 1.2.3 0 .3-.3.5-.6.4v.2c0 .1.1.3.1.4.5 1.2.1 1.7-.7 2.7-.4.4-.7.8-.7 1.2 0 .3-.2.5-.4.6-.1.1-.4-.1-.4-.4zM30.2 54.7c-.3 0-.5-.3-.5-.5l.2-2.4c.1-1.4-.3-1.1-.8-1.9-.2-.3-.3-.8-.2-1.1.2-.7.9-.9 1.2-.4.1.2 0 .5-.2.7 0 .3.2.4.4.6.6.6.8 1 .7 2.2l-.2 2.4c0 .2-.3.4-.6.4zM30.6 26.6c-1 0-2-.6-2.4-1.5-.1-.3 0-.5.2-.7.3-.1.5 0 .7.2.3.7 1.2 1.1 2 .9.4-.1.8.3.6.7s0 1 .3 1.3c.4.3 1 .4 1.6.2s.9.8.3 1c-1.6.6-3.3-.4-3.3-2.1z" opacity="1" data-original="#f86089"></path></g></svg>