<svg xmlns="http://www.w3.org/2000/svg" version="1.1" xmlns:xlink="http://www.w3.org/1999/xlink" width="512" height="512" x="0" y="0" viewBox="0 0 512 512" style="enable-background:new 0 0 512 512" xml:space="preserve" class=""><g><path d="M322.115 19.066 299.959.012l-.268 13.699-108.254 2.244L20.952 438.05l-19.192.971 22.156 19.053L157.457 512l46.022-113.947 134.479 4.622 23.463 65.352-4.488 6.23 22.156 19.053 131.163-59.486L322.115 19.066zm-69.986 231.182 4.957-12.259 5.727 12.627-10.684-.368z" style="" fill="#f23600" data-original="#f23600"></path><path d="M1.748 439.017 178.04 2.558 299.955 0 488.1 414.772l-131.162 59.493-41.127-90.66L181.32 379l-46.027 113.957-133.545-53.94zm247.663-201.794-5.726-12.624-4.952 12.258 10.678.366z" style="" fill="#ac1900" data-original="#ac1900" class=""></path><path d="M191.71 22.372 27.909 427.909l96.276 38.888 43.769-108.363 161.008 5.513 37.975 83.716 94.559-42.892L287.128 20.37l-95.418 2.002zm17.635 233.587 33.27-82.37 38.478 84.827-71.748-2.457z" style="" fill="#ffffff" data-original="#ffffff" class=""></path><path d="m437.386 384.091-2.78-6.129-6.531-14.403-2.747-6.096-6.598-14.536-2.78-6.129-6.665-14.671-2.78-6.13-6.699-14.804-2.813-6.163-6.766-14.938-2.78-6.13-6.832-15.106-2.813-6.129-6.9-15.274-2.814-6.163-6.966-15.374-2.814-6.197-7.034-15.508-2.813-6.196-7.101-15.709-2.813-6.163-7.168-15.843-2.813-6.196-7.235-15.943-2.847-6.263-7.302-16.077-2.813-6.263-7.402-16.245-2.847-6.297-7.436-16.379-2.847-6.33-7.503-16.479-1.742-3.885-77.774 1.641-2.512 6.23-7.036 17.416-2.713 6.665-7 17.35-2.68 6.599-6.966 17.316-2.679 6.632-7.001 17.283-2.646 6.632-7 17.25-2.646 6.632-7.001 17.25-2.646 6.599-6.967 17.25-2.68 6.665-7.001 17.283-2.679 6.665-7 17.317-2.713 6.732-7.034 17.35-2.713 6.733-7.068 17.484-2.713 6.766-7.101 17.518-2.746 6.866-7.101 17.584-2.813 6.933-7.168 17.685-2.813 7.034-7.201 17.853-2.847 7.034-6.598 16.312 3.249 1.306 14.135 5.727 40.059 16.178 14.001 5.66 2.244-5.526 7-17.317 2.679-6.632 6.967-17.283 2.68-6.632 6.967-17.25 2.679-6.632 6.967-17.25 2.68-6.632 1.406-3.484 89.429 3.048 48.667 1.675 40.595 1.373 3.55 7.838 2.814 6.196 7.101 15.642 2.78 6.163 7.034 15.474 2.78 6.163 6.967 15.374 2.814 6.196.034.067.468-.235 63.773-28.939 5.895-2.68-6.364-13.999zM280.298 224.256l2.881 6.33 7.469 16.513 2.88 6.297 7.402 16.312 1.273 2.847-17.283-.603-95.158-3.249 3.886-9.613 2.679-6.665 7.034-17.417 2.713-6.699 7.067-17.484 2.713-6.766 7.101-17.517 2.746-6.833 7.134-17.618 2.746-6.833 6.331-15.676 6.799 15.039 2.981 6.531 7.637 16.881 2.948 6.498 7.603 16.714 2.88 6.397 7.538 16.614z" style="" fill="#ff8600" data-original="#ff8600" class=""></path><path d="M280.331 37.827c-3.014.369-6.029.703-9.043 1.005-24.317 2.479-48.634 3.148-72.984 2.981l2.512-6.23 77.774-1.641 1.741 3.885zM290.681 60.637a637.443 637.443 0 0 1-19.393 2.311c-27.566 2.847-55.131 3.316-82.731 2.947l2.713-6.665c29.207.301 58.347-.402 87.453-3.785 3.048-.335 6.063-.737 9.11-1.139l2.848 6.331zM300.964 83.313c-9.847 1.507-19.762 2.746-29.676 3.785-30.814 3.182-61.596 3.383-92.411 2.746l2.68-6.599c32.423.536 64.811.101 97.167-3.651 6.464-.771 12.962-1.608 19.393-2.579l2.847 6.298zM311.179 105.821a613.304 613.304 0 0 1-39.891 5.426c-33.997 3.517-67.994 3.383-102.057 2.546l2.679-6.632c35.671.837 71.276.703 106.813-3.416a590.156 590.156 0 0 0 29.643-4.187l2.813 6.263zM321.328 128.162a629.594 629.594 0 0 1-50.04 7.235c-37.212 3.852-74.424 3.316-111.704 2.311l2.646-6.632c38.921 1.072 77.74 1.273 116.493-3.182a586.679 586.679 0 0 0 39.758-5.995l2.847 6.263zM235.583 155.258l-2.746 6.833c-27.599.971-55.232.268-82.898-.503l2.646-6.632c27.699.804 55.365 1.374 82.998.302zM331.376 150.301a606.565 606.565 0 0 1-60.088 9.244 482.4 482.4 0 0 1-19.594 1.608l-2.981-6.531a567.646 567.646 0 0 0 30.011-2.612c16.714-1.943 33.36-4.555 49.84-7.905l2.812 6.196zM225.702 179.709l-2.746 6.833c-26.996.536-53.993-.302-81.056-1.072-.536 0-1.072-.033-1.607-.033l2.646-6.599 7.235.201c25.22.737 50.374 1.34 75.528.67zM341.358 172.307c-23.111 5.158-46.523 8.943-70.07 11.388-3.015.301-6.029.603-9.01.837l-2.948-6.498a540.785 540.785 0 0 0 19.393-1.876 592.718 592.718 0 0 0 59.821-10.015l2.814 6.164zM215.855 204.059l-2.713 6.766c-23.714.201-47.461-.536-71.242-1.206-3.718-.101-7.503-.201-11.254-.268l2.68-6.665c5.627.134 11.22.301 16.847.469 21.905.67 43.81 1.206 65.682.904zM351.272 194.212a617.11 617.11 0 0 1-78.511 13.431l-2.88-6.397c2.948-.268 5.895-.603 8.842-.938a606.272 606.272 0 0 0 69.735-12.292l2.814 6.196zM206.075 228.309l-2.713 6.699c-20.465-.033-40.93-.636-61.462-1.239-6.9-.201-13.9-.369-20.934-.469l2.679-6.665c8.843.168 17.685.402 26.528.67 18.656.568 37.279 1.038 55.902 1.004zM361.12 215.916c-25.624 6.565-51.682 11.488-77.941 14.67l-2.881-6.33c26.293-3.082 52.385-7.971 78.009-14.537l2.813 6.197zM196.328 252.425l-2.679 6.665c-17.216-.134-34.466-.67-51.749-1.172-10.082-.268-20.331-.503-30.647-.569l2.713-6.732c12.091.134 24.149.469 36.207.837 15.374.469 30.781.871 46.155.971zM370.9 237.453a615.38 615.38 0 0 1-77.371 15.943l-2.88-6.297c26.125-3.584 51.983-8.842 77.438-15.809l2.813 6.163zM380.613 258.856a616.797 616.797 0 0 1-109.325 21.403c-43.107 4.421-86.181 3.014-129.388 1.809-13.264-.369-26.795-.67-40.394-.636l2.713-6.733c15.34.034 30.647.435 45.954.904 42.939 1.273 85.779 2.077 128.551-2.88 2.077-.234 4.12-.502 6.197-.77l17.283.603-1.273-2.847c25.958-3.953 51.648-9.68 76.87-16.982l2.812 6.129zM390.226 280.091c-.067.033-.101.033-.168.067a616.748 616.748 0 0 1-118.77 24.25c-43.107 4.421-86.181 3.014-129.388 1.775-16.412-.469-33.26-.77-50.174-.502l2.713-6.766c18.589-.235 37.179.268 55.734.837 42.939 1.273 85.779 2.077 128.551-2.88 36.844-4.254 73.285-11.991 108.722-22.91l2.78 6.129zM399.805 301.193a472.524 472.524 0 0 1-9.747 3.115 616.679 616.679 0 0 1-118.77 24.216c-43.107 4.454-86.181 3.048-129.388 1.809-19.594-.569-39.791-.904-60.022-.268l2.746-6.866c21.838-.536 43.743.033 65.548.703 42.939 1.273 85.779 2.077 128.551-2.881a605.967 605.967 0 0 0 118.269-25.991l2.813 6.163zM157.642 348.219l-2.68 6.632c-4.355-.101-8.709-.234-13.063-.368-22.809-.637-46.389-1.005-69.936.1l2.813-6.933c25.121-1.038 50.309-.402 75.396.369 2.479.066 4.991.132 7.47.2zM409.284 322.127a640.808 640.808 0 0 1-19.226 6.33 617.246 617.246 0 0 1-92.913 21.001l-48.667-1.675c10.082-.603 20.164-1.44 30.245-2.613a605.186 605.186 0 0 0 127.781-29.174l2.78 6.131zM147.996 372.1l-2.679 6.632-3.417-.101c-26.025-.737-53.088-1.105-79.917.67l2.813-7.034c27.666-1.641 55.5-1.005 83.2-.167zM418.73 342.926a612.875 612.875 0 0 1-28.671 9.646c-15.173 4.689-30.48 8.809-45.954 12.292l-2.814-6.196a608.77 608.77 0 0 0 74.659-21.872l2.78 6.13zM138.35 395.981l-2.68 6.632c-27.365-.704-55.734-.871-83.736 1.574l2.847-7.034c27.767-2.277 55.701-1.942 83.569-1.172zM428.074 363.559a628.08 628.08 0 0 1-38.016 13.163c-11.924 3.684-23.982 7.034-36.074 9.948l-2.78-6.163a610.274 610.274 0 0 0 74.123-23.044l2.747 6.096zM128.703 419.896l-2.679 6.632c-20.834-.435-42.136-.402-63.304 1.005l-14.135-5.727c26.594-2.513 53.389-2.513 80.118-1.91zM437.386 384.091c-15.542 6.23-31.351 11.857-47.327 16.781a600.726 600.726 0 0 1-26.259 7.436l-2.78-6.163c25.02-6.464 49.605-14.57 73.587-24.183l2.779 6.129zM102.778 443.711c5.426 0 10.818.067 16.245.134l-2.244 5.526-14.001-5.66zM437.855 400.771l-63.773 28.939c-.167.067-.335.101-.502.167l-2.814-6.196a608.831 608.831 0 0 0 67.089-22.91z" style="" fill="#ffb800" data-original="#ffb800"></path><circle cx="141.581" cy="297.984" r="16.285" style="" fill="#ffffff" data-original="#ffffff" class=""></circle><circle cx="353.283" cy="297.984" r="16.285" style="" fill="#ffffff" data-original="#ffffff" class=""></circle><circle cx="241.895" cy="78.466" r="16.285" style="" fill="#ffffff" data-original="#ffffff" class=""></circle><path d="m207.832 101.024-57.207 160.983c-2.169 6.105 7.536 8.732 9.689 2.671l57.207-160.983c2.17-6.104-7.535-8.731-9.689-2.671zM343.364 260.276l-66.716-152.702c-2.582-5.911-11.243-.802-8.676 5.071l66.716 152.702c2.583 5.912 11.242.803 8.676-5.071zM418.246 384.457c-.749-2.314-3.587-4.603-6.18-3.509l-11.802 4.979a7.412 7.412 0 0 0-.367-1.065l-23.494-53.263c-1.096-2.483-4.722-3.061-6.874-1.802-2.56 1.497-2.902 4.381-1.803 6.874l23.423 53.102-5.802 2.448c-1.265.534-2.279 1.072-3.003 2.309-.63 1.077-.897 2.664-.506 3.871.749 2.314 3.587 4.603 6.18 3.509l26.718-11.271c1.265-.534 2.279-1.072 3.002-2.309.632-1.079.899-2.666.508-3.873zM120.659 328.46l-33.451 68.185-5.335-3.83c-2.142-1.538-5.688-.443-6.874 1.802-1.372 2.596-.484 5.233 1.802 6.874l21.215 15.231c2.142 1.538 5.688.443 6.874-1.802 1.371-2.596.483-5.233-1.803-6.874l-7.624-5.473 33.871-69.041c2.838-5.785-5.825-10.883-8.675-5.072zM315.303 306.3l-134.902-4.952c-6.468-.237-6.458 9.812 0 10.048l134.902 4.952c6.467.238 6.457-9.811 0-10.048z" style="" fill="#ffffff" data-original="#ffffff" class=""></path></g></svg>