<svg xmlns="http://www.w3.org/2000/svg" version="1.1" xmlns:xlink="http://www.w3.org/1999/xlink" width="512" height="512" x="0" y="0" viewBox="0 0 512 512" style="enable-background:new 0 0 512 512" xml:space="preserve" class=""><g><path d="M290.257 475.835s12.824-12.717-15.169-10.798c-30.013 2.057-9.918 12.754-9.918 12.754l-4.248 2.97s-34.712-22.33-44.367 4.044c-9.656 26.374 25.545 27.412 46.905 25.774 21.359-1.639 44.71 1.045 26.797-34.744z" style="" fill="#4b9bf4" data-original="#4b9bf4" class=""></path><path d="M251.157 512c-14.012 0-28.315-2.187-34.297-10.087-3.379-4.461-3.773-10.324-1.174-17.424 2.335-6.376 6.302-10.547 11.793-12.391 12.965-4.348 30.131 5.551 33.413 7.558l2.566-1.793c-2.24-1.398-6.406-4.474-5.722-7.677.712-3.334 6.367-5.321 17.289-6.07 10.991-.745 17.1.602 18.697 4.132 1.373 3.035-1.243 6.479-2.354 7.746 6.23 12.619 7.72 21.414 4.556 26.874-4.051 6.992-14.768 7.597-26.113 8.236-2.085.117-4.193.237-6.282.395-3.939.303-8.143.501-12.372.501zm-16.569-39.139c-2.252 0-4.456.294-6.523.989-4.932 1.658-8.513 5.452-10.645 11.274-2.369 6.473-2.062 11.747.912 15.677 7.669 10.124 31.514 9.892 45.056 8.859 2.1-.161 4.219-.281 6.317-.4 10.834-.612 21.069-1.189 24.621-7.319 2.875-4.962 1.274-13.366-4.895-25.693l-.299-.598.474-.471c1.003-.998 3.394-4.054 2.433-6.174-.693-1.524-3.802-3.955-16.887-3.047-13.395.917-15.378 3.529-15.609 4.61-.444 2.076 3.482 5.031 6.062 6.408l1.328.708-5.99 4.187-.521-.333c-.161-.103-13.666-8.677-25.834-8.677z" fill="#000000" opacity="1" data-original="#000000" class=""></path><path d="M290.257 475.835s-4.469 2.891-11.999 2.928" style="" fill="#765aff" data-original="#765aff" class=""></path><path d="m278.262 479.685-.009-1.844c7.177-.037 11.46-2.755 11.502-2.782l1.003 1.55c-.191.124-4.784 3.04-12.496 3.076z" fill="#000000" opacity="1" data-original="#000000" class=""></path><path d="M270.228 478.787s-1.64.315-5.058-.997" style="" fill="#765aff" data-original="#765aff" class=""></path><path d="M269.701 479.743c-.847 0-2.453-.168-4.861-1.09l.66-1.724c3.051 1.173 4.55.95 4.568.95l.335 1.814c-.064.013-.296.05-.702.05zM260.978 480.688c2.525.372 4.467 1.506 6.263 2.828 1.739 1.398 3.335 2.981 4.353 5.317l-.112.146-5.364-4-5.252-4.146.112-.145z" fill="#000000" opacity="1" data-original="#000000" class=""></path><path d="M261.012 480.745c1.54 1.609 2.136 3.383 2.496 5.198.267 1.831.304 3.701-.595 5.735l-.182.032-1.041-5.45-.86-5.482.182-.033z" fill="#000000" opacity="1" data-original="#000000" class=""></path><path d="M231.564 476.752c-1.731 1.413-3.213 2.934-4.549 4.456-1.296 1.564-2.385 3.215-3.115 5.01-.243.424-.382.89-.533 1.353-.153.462-.331.917-.414 1.403l-.348 1.444c-.049.495-.109.994-.189 1.497-.252 2.022-.219 4.131-.248 6.403l-.177.053c-.248-1.063-.558-2.116-.754-3.191-.085-1.089-.36-2.17-.272-3.27-.098-2.2.429-4.393 1.242-6.426 1.753-4.079 5.294-7.166 9.29-8.904l.067.172z" style="" fill="#ffffff" data-original="#ffffff" class=""></path><path d="M284.412 463.745c-6.33-19.515-3.823-40.095.79-59.715 2.719-11.563-14.974-17.094-17.706-5.477-5.337 22.695-8.429 46.954-1.096 69.561 3.653 11.26 21.704 7.013 18.012-4.369z" fill="#000000" opacity="1" data-original="#000000" class=""></path><path d="M181.427 469.979s12.824-12.717-15.169-10.798c-30.013 2.057-9.918 12.754-9.918 12.754l-4.248 2.971s-34.712-22.33-44.367 4.044c-9.656 26.374 25.545 27.412 46.905 25.774 21.358-1.639 44.709 1.044 26.797-34.745z" style="" fill="#4b9bf4" data-original="#4b9bf4" class=""></path><path d="M142.318 506.146c-14.01 0-28.306-2.189-34.287-10.087-3.379-4.461-3.774-10.324-1.174-17.427 2.335-6.376 6.302-10.545 11.793-12.389 12.955-4.35 30.13 5.546 33.413 7.556l2.565-1.793c-2.24-1.398-6.405-4.474-5.722-7.677.713-3.334 6.368-5.321 17.289-6.07 10.988-.747 17.099.602 18.697 4.132 1.374 3.035-1.242 6.482-2.353 7.749 6.231 12.621 7.72 21.414 4.556 26.874-4.053 6.992-14.77 7.595-26.117 8.234-2.084.117-4.191.237-6.278.395-3.943.303-8.151.503-12.382.503zm-16.56-39.139c-2.251 0-4.457.292-6.523.986-4.932 1.658-8.513 5.452-10.645 11.274-2.371 6.475-2.064 11.75.912 15.677 7.672 10.126 31.52 9.892 45.056 8.859 2.099-.161 4.218-.281 6.315-.4 10.836-.609 21.07-1.186 24.622-7.316 2.876-4.962 1.275-13.366-4.894-25.693l-.299-.598.474-.471c1.003-.998 3.394-4.054 2.432-6.176-.69-1.522-3.809-3.957-16.887-3.047-13.394.917-15.378 3.529-15.609 4.61-.444 2.076 3.482 5.031 6.062 6.408l1.328.708-5.989 4.187-.521-.333c-.16-.103-13.666-8.675-25.834-8.675z" fill="#000000" opacity="1" data-original="#000000" class=""></path><path d="M181.427 469.979s-4.469 2.891-11.999 2.928" style="" fill="#765aff" data-original="#765aff" class=""></path><path d="m169.432 473.829-.009-1.844c7.137-.037 11.461-2.755 11.503-2.782l1.001 1.552c-.191.124-4.783 3.037-12.495 3.074z" fill="#000000" opacity="1" data-original="#000000" class=""></path><path d="M161.397 472.932s-1.64.315-5.058-.997" style="" fill="#765aff" data-original="#765aff" class=""></path><path d="M160.872 473.889c-.847 0-2.455-.168-4.864-1.092l.662-1.724c3.058 1.177 4.55.95 4.568.952l.333 1.814c-.062.013-.294.05-.699.05zM152.147 474.832c2.525.372 4.467 1.506 6.263 2.828 1.739 1.398 3.335 2.981 4.354 5.317l-.113.146-5.364-4-5.253-4.146.113-.145z" fill="#000000" opacity="1" data-original="#000000" class=""></path><path d="M152.182 474.889c1.54 1.61 2.136 3.383 2.496 5.198.267 1.831.304 3.702-.595 5.735l-.182.032-1.041-5.45-.86-5.482.182-.033z" fill="#000000" opacity="1" data-original="#000000" class=""></path><path d="M122.734 470.896c-1.731 1.413-3.213 2.934-4.549 4.456-1.296 1.564-2.385 3.215-3.115 5.01-.243.424-.382.89-.533 1.353-.153.462-.331.917-.414 1.403l-.348 1.444c-.049.495-.109.994-.189 1.497-.252 2.022-.218 4.131-.247 6.403l-.177.053c-.248-1.063-.558-2.116-.754-3.191-.085-1.089-.36-2.17-.272-3.27-.099-2.199.429-4.393 1.242-6.426 1.753-4.08 5.294-7.166 9.29-8.904l.066.172z" style="" fill="#ffffff" data-original="#ffffff" class=""></path><path d="M175.582 457.889c-6.33-19.515-3.823-40.095.79-59.714 2.719-11.563-14.974-17.094-17.706-5.477-5.337 22.695-8.429 46.954-1.095 69.561 3.652 11.259 21.703 7.012 18.011-4.37z" fill="#000000" opacity="1" data-original="#000000" class=""></path><path d="m331.981 428.354-213.262-24.631c-11.086-1.28-19.035-11.305-17.755-22.392l33.89-293.433a9.394 9.394 0 0 1 10.409-8.254l222.59 25.708c7.062.816 12.126 7.202 11.31 14.264l-34.496 298.677c-.724 6.282-6.405 10.786-12.686 10.061z" style="" fill="#e75688" data-original="#e75688" class=""></path><path d="M333.319 429.353c-.479 0-.962-.028-1.445-.083l-213.262-24.63c-11.574-1.338-19.903-11.841-18.566-23.415l33.89-293.433a10.248 10.248 0 0 1 3.84-6.9 10.3 10.3 0 0 1 7.593-2.165l222.59 25.708a13.703 13.703 0 0 1 9.227 5.134 13.701 13.701 0 0 1 2.895 10.154L345.586 418.4a12.288 12.288 0 0 1-4.604 8.275 12.274 12.274 0 0 1-7.663 2.678zM144.17 80.505a8.414 8.414 0 0 0-5.247 1.834 8.416 8.416 0 0 0-3.151 5.666l-33.89 293.433c-1.221 10.562 6.379 20.148 16.943 21.369l213.262 24.63c2.796.331 5.546-.46 7.749-2.207a10.452 10.452 0 0 0 3.917-7.04l34.495-298.677a11.866 11.866 0 0 0-2.506-8.795 11.868 11.868 0 0 0-7.992-4.447L145.16 80.563a8.29 8.29 0 0 0-.99-.058z" fill="#000000" opacity="1" data-original="#000000" class=""></path><path d="m362.345 122.07 13.78-11.983 1.212 1.394-13.78 11.983z" fill="#000000" opacity="1" data-original="#000000" class=""></path><path d="m319.081 426.872-207.359-23.961c-7.227-.835-12.409-7.371-11.574-14.598l33.055-286.061c.791-6.843 6.979-11.749 13.822-10.958l207.427 23.969c7.095.82 12.183 7.237 11.363 14.332l-33.102 286.469c-.779 6.748-6.882 11.587-13.632 10.808z" style="" fill="#f6d117" data-original="#f6d117"></path><path d="M319.796 427.788c-.544 0-1.092-.032-1.641-.094l-206.583-23.871a13.959 13.959 0 0 1-9.398-5.226 13.962 13.962 0 0 1-2.948-10.342l32.986-285.457c.889-7.697 7.885-13.23 15.571-12.345l206.583 23.87a13.955 13.955 0 0 1 9.397 5.23 13.96 13.96 0 0 1 2.948 10.341L333.726 415.35a13.953 13.953 0 0 1-5.23 9.397 13.948 13.948 0 0 1-8.7 3.041zM146.146 92.203c-2.738 0-5.379.915-7.558 2.642a12.118 12.118 0 0 0-4.541 8.163l-32.986 285.457c-.375 3.237.535 6.429 2.56 8.983s4.924 4.166 8.163 4.539l206.583 23.872c3.245.379 6.429-.533 8.983-2.559s4.168-4.923 4.541-8.163l32.985-285.456a12.12 12.12 0 0 0-2.56-8.983 12.116 12.116 0 0 0-8.161-4.541l-206.583-23.87a12.254 12.254 0 0 0-1.426-.084z" fill="#000000" opacity="1" data-original="#000000" class=""></path><path d="m185.488 247.63-37.602-4.343a5.8 5.8 0 0 1-5.097-6.428l3.933-34.051a5.8 5.8 0 0 1 6.428-5.097l37.602 4.343a5.8 5.8 0 0 1 5.097 6.428l-3.933 34.051a5.8 5.8 0 0 1-6.428 5.097z" style="" fill="#4b9bf4" data-original="#4b9bf4" class=""></path><path d="M186.067 248.58c-.266 0-.532-.015-.8-.046l-37.37-4.316a6.801 6.801 0 0 1-4.576-2.545 6.796 6.796 0 0 1-1.436-5.035l3.905-33.818a6.806 6.806 0 0 1 2.545-4.577 6.807 6.807 0 0 1 5.036-1.435l37.37 4.316a6.806 6.806 0 0 1 4.577 2.545 6.802 6.802 0 0 1 1.436 5.036l-3.907 33.818a6.806 6.806 0 0 1-2.545 4.577 6.793 6.793 0 0 1-4.235 1.48zm-33.491-49.972a4.955 4.955 0 0 0-3.093 1.082 4.962 4.962 0 0 0-1.858 3.341l-3.905 33.818a4.96 4.96 0 0 0 1.047 3.677 4.962 4.962 0 0 0 3.341 1.858l37.37 4.316a4.93 4.93 0 0 0 3.677-1.047 4.962 4.962 0 0 0 1.858-3.341l3.907-33.818a4.958 4.958 0 0 0-1.048-3.677 4.962 4.962 0 0 0-3.341-1.858l-37.37-4.316a4.819 4.819 0 0 0-.585-.035z" fill="#000000" opacity="1" data-original="#000000" class=""></path><path d="m253.719 255.511-37.602-4.343a5.8 5.8 0 0 1-5.097-6.428l3.933-34.051a5.8 5.8 0 0 1 6.428-5.097l37.602 4.343a5.8 5.8 0 0 1 5.097 6.428l-3.933 34.051a5.8 5.8 0 0 1-6.428 5.097z" style="" fill="#4b9bf4" data-original="#4b9bf4" class=""></path><path d="M254.295 256.461c-.264 0-.531-.016-.798-.046l-37.37-4.316a6.806 6.806 0 0 1-4.577-2.545 6.804 6.804 0 0 1-1.436-5.037l3.907-33.818a6.803 6.803 0 0 1 2.545-4.576 6.819 6.819 0 0 1 5.036-1.436l37.37 4.316c3.749.435 6.445 3.835 6.012 7.582l-3.905 33.818a6.803 6.803 0 0 1-2.545 4.576 6.802 6.802 0 0 1-4.239 1.482zm-.586-1.881c2.726.327 5.219-1.652 5.534-4.388l3.905-33.818a4.96 4.96 0 0 0-1.047-3.677 4.963 4.963 0 0 0-3.341-1.859l-37.37-4.316c-2.715-.315-5.218 1.653-5.534 4.388l-3.907 33.818a4.962 4.962 0 0 0 1.048 3.678 4.962 4.962 0 0 0 3.341 1.858l37.371 4.316z" fill="#000000" opacity="1" data-original="#000000" class=""></path><path d="m317.96 262.93-37.602-4.343a5.8 5.8 0 0 1-5.097-6.428l3.933-34.051a5.8 5.8 0 0 1 6.428-5.097l37.602 4.343a5.8 5.8 0 0 1 5.097 6.428l-3.933 34.051a5.8 5.8 0 0 1-6.428 5.097z" style="" fill="#4b9bf4" data-original="#4b9bf4" class=""></path><path d="M318.536 263.881c-.264 0-.531-.016-.798-.046l-37.37-4.316a6.802 6.802 0 0 1-4.576-2.546 6.799 6.799 0 0 1-1.436-5.036l3.905-33.818a6.803 6.803 0 0 1 2.545-4.576 6.8 6.8 0 0 1 5.035-1.436l37.371 4.316a6.803 6.803 0 0 1 4.576 2.545 6.8 6.8 0 0 1 1.436 5.035l-3.907 33.818a6.806 6.806 0 0 1-2.545 4.577 6.778 6.778 0 0 1-4.236 1.483zM317.95 262a4.9 4.9 0 0 0 3.677-1.048 4.962 4.962 0 0 0 1.858-3.341l3.907-33.818a4.998 4.998 0 0 0-4.388-5.534l-37.371-4.316c-2.716-.313-5.218 1.653-5.534 4.388l-3.905 33.818a5 5 0 0 0 4.388 5.536L317.95 262z" fill="#000000" opacity="1" data-original="#000000" class=""></path><path d="m178.242 310.368-37.602-4.343a5.8 5.8 0 0 1-5.097-6.428l3.933-34.051a5.8 5.8 0 0 1 6.428-5.097l37.602 4.343a5.8 5.8 0 0 1 5.097 6.428l-3.933 34.051a5.8 5.8 0 0 1-6.428 5.097z" style="" fill="#4b9bf4" data-original="#4b9bf4" class=""></path><path d="M178.81 311.317a7.04 7.04 0 0 1-.79-.045l-37.37-4.316a6.851 6.851 0 0 1-6.012-7.582l3.905-33.818a6.8 6.8 0 0 1 2.546-4.576 6.807 6.807 0 0 1 5.035-1.436l37.37 4.316c3.747.435 6.444 3.835 6.012 7.582l-3.905 33.818c-.402 3.483-3.367 6.057-6.791 6.057zm-.578-1.88c2.748.336 5.219-1.653 5.536-4.388l3.905-33.818a5.002 5.002 0 0 0-4.388-5.536l-37.37-4.316c-2.736-.329-5.219 1.652-5.536 4.388l-3.905 33.818a5 5 0 0 0 4.388 5.536l37.37 4.316z" fill="#000000" opacity="1" data-original="#000000" class=""></path><path d="m246.473 318.248-37.602-4.343a5.8 5.8 0 0 1-5.097-6.428l3.933-34.051a5.8 5.8 0 0 1 6.428-5.097l37.602 4.343a5.8 5.8 0 0 1 5.097 6.428l-3.933 34.051a5.8 5.8 0 0 1-6.428 5.097z" style="" fill="#4b9bf4" data-original="#4b9bf4" class=""></path><path d="M247.051 319.198c-.266 0-.533-.015-.8-.046l-37.37-4.316a6.85 6.85 0 0 1-6.012-7.581l3.905-33.818c.21-1.815 1.114-3.44 2.545-4.576s3.219-1.641 5.036-1.436l37.371 4.316a6.85 6.85 0 0 1 6.012 7.581l-3.907 33.818a6.806 6.806 0 0 1-2.545 4.577 6.783 6.783 0 0 1-4.235 1.481zm-33.483-49.971a5.001 5.001 0 0 0-4.957 4.422l-3.905 33.818a4.998 4.998 0 0 0 4.388 5.534l37.37 4.316a4.903 4.903 0 0 0 3.677-1.047 4.962 4.962 0 0 0 1.858-3.341l3.907-33.818a4.998 4.998 0 0 0-4.388-5.534l-37.371-4.316a4.742 4.742 0 0 0-.579-.034z" fill="#000000" opacity="1" data-original="#000000" class=""></path><path d="m310.714 325.668-37.602-4.343a5.8 5.8 0 0 1-5.097-6.428l3.933-34.051a5.8 5.8 0 0 1 6.428-5.097l37.602 4.343a5.8 5.8 0 0 1 5.097 6.428l-3.933 34.051a5.8 5.8 0 0 1-6.428 5.097z" style="" fill="#4b9bf4" data-original="#4b9bf4" class=""></path><path d="M311.29 326.618c-.264 0-.531-.016-.798-.046l-37.37-4.316a6.85 6.85 0 0 1-6.012-7.581l3.905-33.818a6.802 6.802 0 0 1 2.547-4.577 6.797 6.797 0 0 1 5.035-1.435l37.37 4.316a6.85 6.85 0 0 1 6.012 7.581l-3.905 33.818a6.798 6.798 0 0 1-2.547 4.576 6.79 6.79 0 0 1-4.237 1.482zm-.587-1.881a4.992 4.992 0 0 0 5.536-4.388l3.905-33.818a4.998 4.998 0 0 0-4.388-5.534l-37.37-4.316a4.952 4.952 0 0 0-3.677 1.047 4.963 4.963 0 0 0-1.859 3.341l-3.905 33.818a4.998 4.998 0 0 0 4.388 5.534l37.37 4.316z" fill="#000000" opacity="1" data-original="#000000" class=""></path><path d="m170.996 373.105-37.602-4.343a5.8 5.8 0 0 1-5.097-6.428l3.933-34.051a5.8 5.8 0 0 1 6.428-5.097l37.602 4.343a5.8 5.8 0 0 1 5.097 6.428l-3.933 34.051a5.8 5.8 0 0 1-6.428 5.097z" style="" fill="#4b9bf4" data-original="#4b9bf4" class=""></path><path d="M171.573 374.056c-.264 0-.531-.016-.798-.046l-37.371-4.317a6.85 6.85 0 0 1-6.012-7.581l3.907-33.818a6.803 6.803 0 0 1 2.545-4.576 6.807 6.807 0 0 1 5.036-1.436l37.37 4.316a6.851 6.851 0 0 1 6.012 7.582l-3.905 33.817a6.806 6.806 0 0 1-2.545 4.577 6.798 6.798 0 0 1-4.239 1.482zm-.586-1.881a4.926 4.926 0 0 0 3.677-1.048 4.962 4.962 0 0 0 1.858-3.341l3.905-33.817a5 5 0 0 0-4.388-5.536l-37.37-4.316c-2.709-.32-5.218 1.652-5.534 4.388l-3.907 33.818a4.998 4.998 0 0 0 4.388 5.534l37.371 4.318z" fill="#000000" opacity="1" data-original="#000000" class=""></path><path d="m239.227 380.986-37.602-4.343a5.8 5.8 0 0 1-5.097-6.428l3.933-34.051a5.8 5.8 0 0 1 6.428-5.097l37.602 4.343a5.8 5.8 0 0 1 5.097 6.428l-3.933 34.051a5.801 5.801 0 0 1-6.428 5.097z" style="" fill="#4b9bf4" data-original="#4b9bf4" class=""></path><path d="M239.803 381.936c-.264 0-.531-.016-.798-.046l-37.37-4.316a6.85 6.85 0 0 1-6.012-7.581l3.905-33.818c.435-3.746 3.83-6.422 7.582-6.013l37.37 4.316c3.747.435 6.444 3.835 6.012 7.582l-3.905 33.818a6.8 6.8 0 0 1-2.546 4.576 6.793 6.793 0 0 1-4.238 1.482zm-.586-1.881c2.732.322 5.219-1.653 5.536-4.388l3.905-33.818a5.002 5.002 0 0 0-4.388-5.536l-37.37-4.316c-2.735-.328-5.218 1.654-5.536 4.389l-3.905 33.818a4.998 4.998 0 0 0 4.388 5.534l37.37 4.317z" fill="#000000" opacity="1" data-original="#000000" class=""></path><path d="m303.468 388.406-37.602-4.343a5.8 5.8 0 0 1-5.097-6.428l3.933-34.051a5.8 5.8 0 0 1 6.428-5.097l37.602 4.343a5.8 5.8 0 0 1 5.097 6.428l-3.933 34.051a5.801 5.801 0 0 1-6.428 5.097z" style="" fill="#e75688" data-original="#e75688" class=""></path><path d="M304.037 389.354c-.261 0-.524-.016-.79-.046l-37.37-4.315c-3.748-.435-6.445-3.835-6.013-7.582l3.907-33.818a6.803 6.803 0 0 1 2.545-4.576 6.808 6.808 0 0 1 5.036-1.436l37.37 4.316a6.801 6.801 0 0 1 4.576 2.545 6.8 6.8 0 0 1 1.436 5.037l-3.905 33.818a6.855 6.855 0 0 1-6.792 6.057zm-.579-1.88c2.745.338 5.219-1.651 5.534-4.387l3.905-33.818a4.96 4.96 0 0 0-1.047-3.678 4.962 4.962 0 0 0-3.341-1.858l-37.37-4.316c-2.712-.321-5.218 1.652-5.534 4.388l-3.907 33.818a5.002 5.002 0 0 0 4.389 5.536l37.371 4.315zM322.156 202.96 160.23 184.259c-8.607-.994-14.778-8.777-13.784-17.383l3.673-31.8c.994-8.607 8.777-14.778 17.384-13.784l161.926 18.702c8.607.994 14.778 8.777 13.784 17.383l-3.673 31.8c-.995 8.606-8.777 14.777-17.384 13.783z" fill="#000000" opacity="1" data-original="#000000" class=""></path><path d="M324.512 204.054c-.62 0-1.243-.036-1.867-.107l-163.116-18.839c-8.77-1.014-15.081-8.973-14.07-17.744l3.81-32.989c1.013-8.77 8.973-15.071 17.744-14.07l163.115 18.839c8.771 1.014 15.082 8.973 14.071 17.744l-3.811 32.989a15.908 15.908 0 0 1-5.958 10.709 15.897 15.897 0 0 1-9.918 3.468zm-1.656-1.942a14.062 14.062 0 0 0 10.426-2.973 14.063 14.063 0 0 0 5.27-9.473l3.811-32.989c.896-7.759-4.688-14.802-12.447-15.697l-163.115-18.839c-7.775-.896-14.802 4.688-15.697 12.446l-3.81 32.989c-.896 7.759 4.688 14.801 12.446 15.697l163.116 18.839z" fill="#000000" opacity="1" data-original="#000000" class=""></path><path d="M320.302 196.45c-.598 0-1.203-.034-1.811-.105l-151.209-17.463c-8.591-.992-14.773-8.789-13.781-17.379l2.264-19.603c.992-8.59 8.795-14.758 17.379-13.781l151.209 17.463c8.59.992 14.772 8.789 13.781 17.379l-2.264 19.603c-.921 7.984-7.718 13.886-15.568 13.886zm-148.968-67.246c-7.254 0-13.535 5.454-14.387 12.831l-2.264 19.603c-.917 7.94 4.795 15.144 12.735 16.062l151.209 17.463c7.934.916 15.144-4.795 16.062-12.735l2.264-19.603c.916-7.94-4.796-15.144-12.735-16.062L173.009 129.3a14.586 14.586 0 0 0-1.675-.096z" style="" fill="#ffffff" data-original="#ffffff" class=""></path><path d="M239.435 158.675c-.25 2.016-1.053 3.62-2.41 4.812-1.526 1.336-3.611 2.101-6.254 2.293-.059.476.124.74.55.793.751.094 1.701-.031 2.849-.371 1.148-.34 2.064-.799 2.746-1.375 1.041 1.338 1.441 2.98 1.199 4.927-.242 1.947-.99 3.408-2.242 4.384l-16.884-2.099a8.466 8.466 0 0 1-.851-4.96c.217-1.746.738-3.173 1.562-4.278 2.525-.17 4.868-.762 7.029-1.777 2.16-1.016 3.328-2.23 3.504-3.646.046-.375 0-.693-.139-.952a.82.82 0 0 0-.66-.444c-.613-.076-.96.208-1.04.853-.08.646.08 1.145.481 1.5-.728.837-1.778 1.559-3.15 2.163-1.371.606-2.692 1.001-3.961 1.187-2.045-1.755-2.911-3.891-2.598-6.407.313-2.517 1.557-4.389 3.731-5.62 2.024-1.147 4.485-1.54 7.384-1.18 2.899.361 5.204 1.423 6.918 3.187 1.834 1.906 2.58 4.243 2.236 7.01z" style="" fill="#ffffff" data-original="#ffffff" class=""></path><path d="m235.971 174.495-17.205-2.14-.083-.163a8.843 8.843 0 0 1-.885-5.156c.223-1.798.771-3.292 1.627-4.44l.094-.126.157-.011c2.473-.167 4.797-.754 6.907-1.746 2.037-.958 3.152-2.094 3.311-3.378.037-.302.003-.553-.101-.749a.482.482 0 0 0-.401-.266c-.208-.027-.363.001-.461.081-.103.084-.169.244-.197.474-.066.531.054.924.369 1.202l.254.225-.224.256c-.758.872-1.858 1.63-3.27 2.252-1.387.613-2.75 1.021-4.05 1.211l-.154.023-.118-.102c-2.128-1.825-3.041-4.082-2.716-6.708.327-2.618 1.64-4.594 3.903-5.876 2.08-1.179 4.632-1.587 7.594-1.222 2.964.369 5.358 1.475 7.121 3.288 1.904 1.977 2.687 4.43 2.332 7.29-.261 2.094-1.111 3.785-2.524 5.026-1.513 1.324-3.574 2.115-6.129 2.351a.177.177 0 0 0 .028.053c.043.055.139.077.213.086.693.085 1.611-.032 2.71-.358 1.097-.324 1.978-.764 2.624-1.309l.271-.23.219.281c1.095 1.406 1.521 3.149 1.269 5.18-.253 2.031-1.051 3.583-2.372 4.612l-.113.089zm-16.758-2.773 16.558 2.058c1.108-.914 1.782-2.282 2.004-4.068.214-1.711-.098-3.189-.926-4.398-.681.502-1.548.91-2.583 1.215-1.19.354-2.201.474-2.988.383-.293-.037-.518-.153-.669-.346-.162-.207-.221-.486-.179-.829l.035-.279.28-.02c2.556-.186 4.593-.93 6.054-2.209 1.284-1.129 2.057-2.675 2.296-4.597.329-2.646-.392-4.91-2.143-6.731-1.651-1.697-3.909-2.735-6.714-3.084-2.811-.358-5.223.032-7.174 1.137-2.094 1.185-3.258 2.94-3.559 5.365-.295 2.369.478 4.334 2.364 6.002 1.192-.19 2.442-.572 3.718-1.136 1.192-.525 2.14-1.146 2.823-1.849-.313-.404-.433-.922-.356-1.543.052-.411.201-.72.444-.919.247-.204.575-.282.979-.231.409.051.726.265.92.622.172.321.231.711.178 1.156-.191 1.533-1.436 2.849-3.699 3.914-2.141 1.006-4.493 1.611-6.992 1.797-.732 1.035-1.205 2.376-1.405 3.989a8.138 8.138 0 0 0 .734 4.601z" fill="#000000" opacity="1" data-original="#000000" class=""></path><path d="M321.465 168.874c-.25 2.016-1.054 3.619-2.41 4.811-1.527 1.336-3.611 2.101-6.255 2.294-.059.476.124.74.55.793.752.094 1.702-.03 2.85-.371 1.148-.34 2.063-.799 2.746-1.375 1.041 1.338 1.441 2.979 1.199 4.926s-.99 3.408-2.242 4.384l-16.884-2.099a8.475 8.475 0 0 1-.852-4.96c.217-1.746.738-3.172 1.562-4.278 2.526-.169 4.869-.761 7.029-1.777s3.329-2.23 3.505-3.646c.047-.375 0-.692-.139-.951a.82.82 0 0 0-.66-.445c-.613-.076-.96.208-1.04.853-.081.645.08 1.144.48 1.5-.727.838-1.777 1.559-3.149 2.164-1.371.606-2.692 1.001-3.961 1.186-2.045-1.754-2.911-3.89-2.598-6.407.313-2.517 1.556-4.389 3.731-5.619 2.024-1.147 4.485-1.54 7.384-1.18 2.899.36 5.204 1.423 6.918 3.187 1.834 1.906 2.581 4.243 2.236 7.01z" style="" fill="#ffffff" data-original="#ffffff" class=""></path><path d="m318.001 184.694-17.207-2.14-.082-.163a8.863 8.863 0 0 1-.887-5.156c.224-1.798.772-3.292 1.627-4.44l.094-.127.158-.011c2.466-.164 4.79-.751 6.907-1.745 2.037-.958 3.152-2.094 3.311-3.379.037-.302.004-.553-.101-.746a.48.48 0 0 0-.401-.267c-.202-.029-.358-.001-.455.075-.106.083-.174.244-.202.479-.067.531.053.924.367 1.202l.253.225-.221.255c-.756.872-1.856 1.63-3.27 2.253-1.391.615-2.754 1.023-4.05 1.211l-.154.022-.118-.1c-2.128-1.825-3.041-4.082-2.716-6.708.327-2.618 1.64-4.596 3.904-5.876 2.081-1.177 4.633-1.578 7.593-1.222 2.965.369 5.361 1.475 7.121 3.288 1.905 1.978 2.688 4.431 2.332 7.29-.26 2.092-1.109 3.784-2.524 5.026-1.515 1.325-3.576 2.116-6.129 2.351a.177.177 0 0 0 .028.053c.043.055.139.077.213.086.691.084 1.61-.033 2.71-.358 1.098-.325 1.979-.765 2.624-1.309l.272-.23.218.282c1.095 1.406 1.52 3.149 1.269 5.179-.253 2.031-1.051 3.583-2.372 4.612l-.112.088zm-16.756-2.773 16.556 2.058c1.108-.914 1.782-2.282 2.004-4.068.214-1.71-.099-3.188-.926-4.397-.68.499-1.547.908-2.583 1.214-1.19.354-2.201.475-2.988.383-.293-.037-.518-.153-.669-.346-.162-.207-.221-.486-.179-.829l.035-.279.28-.02c2.553-.185 4.589-.928 6.054-2.209 1.286-1.13 2.058-2.676 2.296-4.597.331-2.645-.391-4.909-2.143-6.731-1.65-1.697-3.908-2.735-6.714-3.084-2.809-.358-5.224.033-7.173 1.137-2.094 1.185-3.259 2.94-3.56 5.365-.295 2.369.479 4.335 2.364 6.003 1.189-.189 2.438-.571 3.718-1.137 1.195-.526 2.142-1.148 2.823-1.849-.313-.404-.433-.923-.354-1.544.051-.42.206-.736.461-.933.244-.192.573-.26.96-.216.409.051.726.265.92.622.172.319.232.708.178 1.155-.191 1.533-1.436 2.851-3.699 3.915-2.148 1.008-4.499 1.612-6.993 1.796-.732 1.036-1.204 2.377-1.405 3.99a8.144 8.144 0 0 0 .737 4.601z" fill="#000000" opacity="1" data-original="#000000" class=""></path><path d="M269.659 152.966c1.602.199 2.803.672 3.599 1.42.828.815 1.156 1.905.986 3.269l-.304 2.442 3.288.409c.451.87.757 1.677.919 2.422.162.745.187 1.564.076 2.46-.112.895-.34 1.681-.684 2.357-.345.675-.833 1.355-1.465 2.039l-4.789-.595a.99.99 0 0 0-.075.296c-.04.326.124.537.494.633l.976.121-.392 3.155c-1.298 1.135-2.998 1.573-5.102 1.311-1.628-.202-2.827-.682-3.598-1.439-.831-.79-1.159-1.873-.988-3.251l.233-1.878-3.361-.418c-.862-1.557-1.192-3.149-.989-4.776.112-.902.345-1.703.699-2.402.354-.7.835-1.4 1.444-2.099l3.906.485c.626.078.96-.052 1.002-.39.017-.138.02-.258.007-.362l-1.446-.18.462-3.718c1.323-1.132 3.024-1.569 5.102-1.311z" style="" fill="#ffffff" data-original="#ffffff" class=""></path><path d="M267.943 175.112a10.205 10.205 0 0 1-.799-.067c-1.696-.211-2.974-.728-3.796-1.536-.905-.86-1.272-2.051-1.089-3.536l.192-1.54-3.195-.396-.084-.152c-.894-1.612-1.239-3.289-1.03-4.985.118-.937.364-1.783.733-2.514.367-.724.869-1.455 1.492-2.169l.119-.137 4.087.507c.33.043.49.007.554-.018.061-.024.063-.041.066-.074l.003-.018-1.485-.185.521-4.188.1-.087c1.393-1.191 3.206-1.659 5.367-1.391 1.67.208 2.947.716 3.791 1.511.91.896 1.275 2.092 1.092 3.56l-.262 2.103 3.126.388.083.16c.463.894.781 1.737.949 2.507.17.777.197 1.643.082 2.574-.116.928-.357 1.759-.719 2.47-.358.699-.869 1.412-1.519 2.115l-.119.13-4.661-.579c-.006.084.016.162.245.221l1.272.156-.451 3.623-.098.086c-1.196 1.049-2.73 1.539-4.567 1.461zm-8.254-7.71 3.527.438-.276 2.217c-.159 1.275.131 2.244.884 2.96.717.705 1.861 1.157 3.404 1.348 1.953.241 3.532-.144 4.736-1.145l.333-2.684-.636-.079c-.581-.149-.853-.515-.791-1.015.021-.164.055-.295.106-.401l.106-.223 4.859.604c.551-.615.986-1.231 1.294-1.834.325-.639.543-1.394.648-2.243.107-.854.083-1.643-.071-2.345-.144-.667-.415-1.398-.807-2.178l-3.447-.429.345-2.78c.158-1.265-.132-2.24-.886-2.983-.732-.688-1.877-1.136-3.401-1.324-1.923-.242-3.511.147-4.738 1.147l-.403 3.245 1.375.171.03.267c.014.129.013.273-.007.44a.755.755 0 0 1-.498.63c-.223.087-.513.105-.886.06l-3.724-.464a9.794 9.794 0 0 0-1.279 1.892c-.333.66-.558 1.431-.665 2.289-.185 1.498.107 2.983.868 4.419z" fill="#000000" opacity="1" data-original="#000000" class=""></path><path d="M357.181 135.572c-1.018-5.699-4.964-9.675-10.46-11.27-2.946-.855-4.204 3.735-1.265 4.588 2.151.624 3.965 1.582 5.303 3.292.956 1.223 1.635 3.228 1.895 4.995.613 4.169-.215 8.811-.806 12.946-.182 1.27.312 2.556 1.662 2.926 1.116.307 2.743-.382 2.926-1.662.747-5.226 1.686-10.55.745-15.815zM112.312 383.994c1.018 5.699 4.964 9.675 10.46 11.27 2.946.855 4.204-3.735 1.265-4.588-2.151-.624-3.965-1.582-5.303-3.292-.956-1.223-1.635-3.227-1.895-4.995-.613-4.169.215-8.811.806-12.945.182-1.27-.312-2.556-1.662-2.927-1.116-.307-2.743.382-2.926 1.662-.747 5.226-1.686 10.55-.745 15.815zM231.527 88.732c1.95-6.77 3.347-14.251 4.032-22.212 2.958-33.793-7.791-63.103-23.989-65.449-16.223-2.313-31.737 23.21-34.699 57.022-.749 8.475-.617 16.674.244 24.229l.133.113 54.279 6.297z" style="" fill="#ffffff" data-original="#ffffff" class=""></path><path d="m232.197 89.739-55.331-6.419-.493-.416-.175-.477c-.899-7.886-.982-16.101-.246-24.416 2.099-23.963 10.442-44.438 21.772-53.43C202.271.972 206.979-.514 211.7.158c16.66 2.412 27.775 32.218 24.779 66.442-.675 7.835-2.042 15.367-4.065 22.387l-.217.752zm-54.234-8.15 52.89 6.136c1.874-6.691 3.147-13.848 3.787-21.285 2.912-33.267-7.496-62.18-23.201-64.454-4.201-.6-8.432.759-12.566 4.041-10.781 8.557-19.057 29.025-21.081 52.146-.705 7.971-.648 15.845.171 23.416z" fill="#000000" opacity="1" data-original="#000000" class=""></path><path d="M186.727 20.312c-8.102-5.78-6.491-17.487-6.419-17.983l1.828.267c-.016.11-1.513 11.093 5.662 16.212l-1.071 1.504zM182.13 30.647c-10.114-2.809-11.093-15.858-11.13-16.413l1.842-.123c.008.123.936 12.3 9.782 14.756l-.494 1.78zM178.215 47.05c-10.047-3.034-11.495-14.513-11.553-15.001l1.834-.215c.014.108 1.378 10.768 10.253 13.448l-.534 1.768z" fill="#000000" opacity="1" data-original="#000000" class=""></path><path d="M212.453 86.449c1.748-6.794 3.019-17.667 3.574-25.651.111-1.541.167-3.079.226-4.579l-21.038-6.141 20.714-7.913c-1.561-18.435-9.455-31.796-17.598-31.231-10.678.765-19.058 24.713-20.976 52.616-.526 7.353-.411 13.349.242 19.361l34.856 3.538z" fill="#000000" opacity="1" data-original="#000000" class=""></path><path d="m213.149 87.449-36.388-3.695-.08-.743c-.685-6.304-.76-12.325-.245-19.526 1.726-25.122 9.293-52.573 21.831-53.472 8.804-.61 17.008 13.475 18.583 32.074l.059.692-18.799 7.182 19.095 5.574-.039 1.009a131.902 131.902 0 0 1-.217 4.32c-.52 7.473-1.775 18.719-3.601 25.814l-.199.771zm-34.711-5.381 33.312 3.382c1.691-7.001 2.86-17.585 3.356-24.717.093-1.286.147-2.569.197-3.831l-22.981-6.707 22.626-8.643c-1.601-16.961-8.972-30.276-16.552-29.698-9.489.681-18.139 22.932-20.119 51.759-.487 6.806-.438 12.533.161 18.455z" fill="#000000" opacity="1" data-original="#000000" class=""></path><path d="m334.023 100.638.155-.08c2.577-7.155 4.592-15.103 5.813-23.523 4.898-33.586-4.326-61.993-20.646-63.476-16.303-1.445-33.508 24.605-38.406 58.171-1.165 7.905-1.528 15.507-1.188 22.544l54.272 6.364z" style="" fill="#ffffff" data-original="#ffffff" class=""></path><path d="m333.916 101.555-55.048-6.454-.038-.781c-.353-7.301.049-14.947 1.197-22.724 4.96-33.995 22.66-60.436 39.401-58.957 4.757.432 8.991 2.963 12.585 7.521 8.957 11.36 12.365 33.204 8.893 57.008-1.199 8.263-3.17 16.238-5.86 23.702l-.123.344-.574.293-.433.048zM280.64 93.45l52.883 6.199c2.538-7.176 4.407-14.825 5.555-22.746 3.35-22.967.008-44.791-8.514-55.6-3.267-4.143-7.069-6.44-11.301-6.824-15.726-1.391-32.588 24.341-37.409 57.385-1.089 7.383-1.497 14.641-1.214 21.586z" fill="#000000" opacity="1" data-original="#000000" class=""></path><path d="m339.095 37.999-.697-1.708c8.16-3.331 9.232-14.364 9.241-14.474l1.839.161c-.043.499-1.169 12.262-10.383 16.021zM341.189 49.117l-.071-1.844c9.195-.355 12.88-11.991 12.916-12.108l1.765.543c-.165.53-4.121 13.004-14.61 13.409zM341.227 65.979l-.113-1.842c9.279-.569 13.034-10.625 13.07-10.726l1.736.63c-.167.461-4.219 11.297-14.693 11.938zM279.879 93.753c-.007-6.048 1.254-15.659 2.562-22.914 4.887-27.538 13.2-46.352 24.557-45.431 8.136.66 15.761 13.43 15.344 31.927l-21.441 5.655 20.261 8.353c-.219 1.485-.439 3.008-.714 4.529-1.404 7.878-3.439 15.328-5.903 21.897l-34.666-4.016z" fill="#000000" opacity="1" data-original="#000000" class=""></path><path d="m315.157 98.768-36.2-4.193-.001-.821c-.007-6.445 1.384-16.46 2.578-23.078 5.444-30.679 14.557-47.082 25.541-46.188 8.309.674 16.637 13.152 16.192 32.866l-.016.694-19.458 5.133 18.39 7.581-.154 1.04a127.49 127.49 0 0 1-.669 4.231c-1.398 7.843-3.4 15.265-5.947 22.057l-.256.678zm-34.348-5.837 33.124 3.836c2.36-6.429 4.295-13.692 5.608-21.059.23-1.269.421-2.54.604-3.788l-22.131-9.124 23.419-6.176c.21-17.988-7.306-29.708-14.508-30.292-9.838-.751-18.396 15.492-23.574 44.672-1.132 6.269-2.44 15.6-2.542 21.931z" fill="#000000" opacity="1" data-original="#000000" class=""></path><path d="M253.825 93.491c-10.523-1.048-17.063-7.242-26.718-8.341-5.42-.617-10.825-.104-11.972 6.053-2.101 11.276 5.006 20.161 14.379 26.312 12.107 7.944 27.207 9.863 41.139 5.916 11.734-3.325 24.458-10.087 24.121-23.772-.154-6.261-5.018-7.889-10.447-8.416-9.672-.938-20.873 3.208-30.502 2.248z" style="" fill="#ffffff" data-original="#ffffff" class=""></path><path d="M256.397 126.349c-9.763 0-19.284-2.744-27.391-8.063-8.072-5.296-17.189-14.325-14.779-27.251 1.354-7.266 8.061-7.362 12.984-6.803 4.81.547 8.921 2.346 12.897 4.085 4.189 1.834 8.522 3.728 13.809 4.255 4.709.469 9.955-.336 15.027-1.113 5.175-.793 10.521-1.62 15.472-1.135 4.755.461 11.1 1.928 11.282 9.312.282 11.472-8.293 20.007-24.794 24.683a53.223 53.223 0 0 1-14.507 2.03zm-32.436-40.471c-4.799 0-7.215 1.724-7.919 5.495-2.222 11.929 6.375 20.381 13.979 25.371 11.662 7.652 26.382 9.766 40.381 5.799 10.878-3.082 23.777-9.55 23.451-22.86-.115-4.691-2.901-6.869-9.613-7.521-4.712-.451-9.95.346-15.013 1.122-5.187.796-10.549 1.619-15.492 1.126-5.576-.555-10.043-2.51-14.364-4.4-4.028-1.762-7.833-3.426-12.367-3.942a27.046 27.046 0 0 0-3.043-.19z" fill="#000000" opacity="1" data-original="#000000" class=""></path><path d="m271.522 123.743-1.738-.623a56.558 56.558 0 0 0 3.256-16.337 56.57 56.57 0 0 0-1.223-14.757l1.805-.391a58.335 58.335 0 0 1-2.1 32.108zM250.752 125.34l-1.713-.69a61.093 61.093 0 0 0 4.07-16.216 61.037 61.037 0 0 0-.199-14.819l1.83-.248a62.901 62.901 0 0 1-3.988 31.973zM230.35 117.904l-1.674-.777a56.99 56.99 0 0 0 4.996-29.993l1.837-.193a58.818 58.818 0 0 1-.597 16.519 58.778 58.778 0 0 1-4.562 14.444z" fill="#000000" opacity="1" data-original="#000000" class=""></path><path d="M262.854 89.596c-.583 5.744-4.517 10.049-8.786 9.616-4.269-.433-7.257-5.441-6.674-11.185.583-5.744 4.517-10.049 8.786-9.616 4.269.433 7.257 5.441 6.674 11.185z" style="" fill="#ed6122" data-original="#ed6122" class=""></path><path d="M254.669 100.166c-.231 0-.462-.013-.694-.036-2.363-.24-4.442-1.677-5.856-4.047-1.361-2.282-1.945-5.177-1.643-8.151.302-2.974 1.455-5.692 3.248-7.653 1.86-2.036 4.193-3.012 6.55-2.787 4.769.484 8.133 5.955 7.499 12.197-.302 2.974-1.455 5.692-3.248 7.654-1.679 1.837-3.736 2.823-5.856 2.823zm.919-20.862c-1.6 0-3.182.776-4.502 2.22-1.527 1.67-2.511 4.012-2.773 6.594-.262 2.582.231 5.075 1.391 7.019 1.107 1.856 2.69 2.976 4.457 3.156 1.779.191 3.543-.6 5-2.196 1.527-1.67 2.512-4.012 2.774-6.594.531-5.229-2.094-9.792-5.848-10.173a4.66 4.66 0 0 0-.499-.026zM118.881 226.259c.892-6.645 1.776-13.29 2.666-19.936-10.503 4.139-21.611 6.589-31.587-.658-8.631-6.268-12.033-16.889-13.859-26.919-1.857-10.198-2.028-20.575-1.603-30.965l-18.483-.791c-.776 17.697-.111 35.469 6.575 51.782 5.384 13.135 15.712 24.348 29.599 28.581 8.96 2.731 17.921 1.796 26.63-.669.019-.141.043-.283.062-.425z" fill="#000000" opacity="1" data-original="#000000" class=""></path><path d="M70.803 107.513s17.151-42.938 31.822-35.911c11.547 5.53-13.107 44.585-13.107 44.585l-18.715-8.674z" style="" fill="#ffffff" data-original="#ffffff" class=""></path><path d="m89.864 117.366-20.244-9.382.324-.813c.513-1.283 12.703-31.483 25.66-36.54 2.607-1.017 5.102-.971 7.419.138 1.59.761 2.668 2.092 3.205 3.956 3.27 11.349-15.146 40.711-15.931 41.956l-.433.685zm-17.871-10.318 17.17 7.958c2.78-4.532 18.074-30.114 15.292-39.769-.39-1.354-1.12-2.271-2.229-2.803-1.861-.892-3.808-.919-5.949-.083-11.092 4.328-22.234 29.81-24.284 34.697z" fill="#000000" opacity="1" data-original="#000000" class=""></path><path d="M55.348 103.879s-8.576-44.639 7.623-43.16c16.199 1.479 9.786 45.736 9.786 45.736l-17.409-2.576z" style="" fill="#ffffff" data-original="#ffffff" class=""></path><path d="m73.537 107.504-18.972-2.807-.124-.644c-.255-1.329-6.162-32.674 2.065-41.758 1.718-1.896 3.93-2.728 6.548-2.496 2.617.239 4.844 1.501 6.619 3.754 8.548 10.834 4.187 41.726 3.997 43.035l-.133.916zm-17.399-4.441 15.826 2.342c.661-5.248 3.533-31.489-3.741-40.709-1.47-1.864-3.216-2.864-5.337-3.057-2.048-.192-3.687.432-5.011 1.896-7.007 7.733-2.541 34.986-1.737 39.528z" fill="#000000" opacity="1" data-original="#000000" class=""></path><path d="M94.056 119.848s9.036 22.584-11.168 29.742c0 0 7.009 9.17-4.962 11.445-11.971 2.275-35.995-2.496-28.182-14.114 0 0-21.322-15.976-4.315-38.545l48.627 11.472z" style="" fill="#ffffff" data-original="#ffffff" class=""></path><path d="M71.278 162.511c-8.732 0-19.387-2.36-22.869-7.637-1.084-1.643-1.891-4.284.118-7.748-2.186-1.843-8.998-8.281-10.366-17.923-1.008-7.1 1.19-14.294 6.531-21.381l.362-.482 49.53 11.719.437.63c.183.459 4.345 11.171.136 20.473-2.027 4.48-5.679 7.802-10.865 9.885.888 1.507 2.219 4.438 1.18 7.154-.914 2.39-3.394 3.986-7.372 4.741-1.974.375-4.319.569-6.822.569zm-25.47-53.096c-4.771 6.516-6.73 13.079-5.823 19.511 1.483 10.51 10.224 17.191 10.312 17.258l.7.527-.489.727c-1.629 2.422-1.812 4.523-.559 6.421 3.586 5.433 18.532 8.032 27.803 6.27 3.306-.628 5.323-1.835 5.992-3.587 1.086-2.837-1.565-6.355-1.591-6.39l-.77-1.008 1.196-.423c5.277-1.869 8.943-5.004 10.894-9.319 3.434-7.591.619-16.679-.114-18.768l-47.551-11.219z" fill="#000000" opacity="1" data-original="#000000" class=""></path><path d="M72.868 152.003c-.57 0-1.136-.021-1.688-.066l.149-1.839c4.91.393 11.244-1.378 11.307-1.396l.504 1.775c-.242.07-5.429 1.526-10.272 1.526zM59.987 150.25c-.194-.007-4.812-.198-10.581-2.469l.676-1.718c5.457 2.149 9.928 2.341 9.973 2.343l-.068 1.844z" fill="#000000" opacity="1" data-original="#000000" class=""></path><path d="M45.41 96.637c2.922-.492 6.334.894 8.465 3.062 3.166 3.22 4.164 8.211 4.359 12.578.169 3.789-.624 8.289-4.617 9.802-5.716 2.166-9.773-2.8-11.845-7.496-1.936-4.386-3.07-10.144-.796-14.624 1.012-1.997 2.629-3.018 4.434-3.322z" style="" fill="#ffffff" data-original="#ffffff" class=""></path><path d="M50.926 123.517c-3.95 0-7.553-3.019-10-8.563-1.203-2.724-3.685-9.679-.774-15.413 1.071-2.113 2.836-3.432 5.103-3.815h.001c3.076-.518 6.809.816 9.277 3.325 2.804 2.851 4.36 7.287 4.623 13.183.247 5.537-1.604 9.34-5.211 10.708a8.5 8.5 0 0 1-3.019.575zm-5.362-25.97c-1.691.285-2.957 1.237-3.765 2.828-2.553 5.031-.279 11.351.817 13.834 1.254 2.845 4.807 9.227 10.675 7.006 3.59-1.361 4.169-5.591 4.022-8.898-.243-5.428-1.621-9.455-4.095-11.971-2.032-2.065-5.185-3.222-7.654-2.799z" fill="#000000" opacity="1" data-original="#000000" class=""></path><path d="M94.206 120.122c-5.852-11.004-25.573-15.462-32.894-16.856-4.195-.799-8.586-.97-11.03 2.533-8.035 11.515 19.5 23.088 19.5 23.088s-4.945 8.431 2.33 12.992" style="" fill="#ffffff" data-original="#ffffff" class=""></path><path d="M71.623 142.659c-5.803-3.638-4.764-9.849-3.119-13.326-3.801-1.715-17.886-8.558-20.266-16.777-.739-2.552-.306-5.003 1.286-7.285 2.833-4.059 7.879-3.688 11.96-2.912 10.105 1.923 27.9 6.732 33.537 17.33l-1.565 1.221c-5.275-9.917-22.536-14.875-32.316-16.737-5.318-1.012-8.341-.368-10.1 2.153-1.276 1.829-1.613 3.698-1.028 5.716 2.455 8.479 19.952 15.918 20.128 15.993l.969.407-.53.909c-.183.314-4.395 7.72 2.023 11.744l-.979 1.564zM464.923 302.356c-14.797 10.315-38.734 6.319-60.304 2.672a17.084 17.084 0 0 1-1.858-.269 23.92 23.92 0 0 1-3.082-.74c-9.083-2.807-12.734-8.55-12.156-13.406-.171-5.102 4.008-9.277 12.978-8.179a20.39 20.39 0 0 1 2.044.263c.679.107 1.372.262 2.074.442 11.528 2.218 31.746 7.02 36.984.092 5.379-7.161-7.784-19.764-15.239-26.151-16.884-14.509-35.827-25.262-58.878-33.568l2.236-21.566c39.371 12.251 72.151 31.003 93.871 58.532 11.462 14.514 15.751 31.817 1.33 41.878z" fill="#000000" opacity="1" data-original="#000000" class=""></path><path d="M409.655 280.05s10.979-7.73 12.863 1.162c1.435 6.774.072 21.53-.66 28.175-.337 3.066-2.277 5.819-5.182 6.856-1.879.671-6.735-.537-9.038-2.36-4.733 3.221-11.074 9.539-23.026 10.406-8.941.648-18.502-.747-26.721-4.396-4.225-1.876-8.021-4.469-10.362-8.543-1.301-2.264-2.217-4.917-2.07-7.557.073-1.316.43-2.597 1.106-3.732.197-.33 1.655-2.6 1.655-2.6s-7.498-11.603 5.333-16.579c0 0-10.324-18.997 17.728-13.788 1.699.316 3.542-7.195 10.208-10.329.989-.465 7.914-3.602 14.961-1.104 8.385 2.974 14.115 12.921 13.205 24.389z" style="" fill="#ffffff" data-original="#ffffff" class=""></path><path d="M380.337 325.367c-8.037.001-16.002-1.601-22.82-4.629-5.113-2.271-8.641-5.191-10.787-8.927-1.098-1.91-2.369-4.86-2.192-8.067.085-1.526.501-2.922 1.236-4.154.141-.237.921-1.457 1.363-2.148-.836-1.499-2.964-5.959-1.541-10.352.932-2.876 3.186-5.122 6.703-6.685-.951-2.131-2.855-7.488-.084-11.303 2.755-3.793 9.224-4.777 19.236-2.913.141-.131.83-1.205 1.383-2.068 1.575-2.455 3.955-6.164 8.263-8.19 1.905-.894 8.665-3.617 15.662-1.138 8.598 3.048 14.152 12.58 13.907 23.54 2.195-1.253 6.281-3.134 9.34-1.93 1.764.692 2.912 2.246 3.416 4.619 1.424 6.722.208 20.72-.645 28.467-.387 3.516-2.66 6.508-5.79 7.623-2.064.74-6.699-.345-9.357-2.098-.609.432-1.246.908-1.92 1.411-4.547 3.394-10.773 8.042-21.031 8.786a60.542 60.542 0 0 1-4.342.156zm-17.584-58.244c-4.487 0-7.56 1.028-9.041 3.062-2.776 3.815.62 10.196.654 10.26l.498.922-.976.379c-3.5 1.357-5.698 3.344-6.531 5.906-1.444 4.433 1.61 9.264 1.641 9.312l.321.499-.32.5c-.001.001-1.444 2.246-1.638 2.573-.582.974-.911 2.088-.978 3.311-.153 2.756.976 5.352 1.949 7.045 1.945 3.385 5.195 6.054 9.936 8.159 7.773 3.451 17.101 4.984 26.279 4.318 9.718-.705 15.695-5.165 20.059-8.424a75.862 75.862 0 0 1 2.514-1.825l.561-.382.531.421c2.112 1.673 6.668 2.748 8.155 2.214 2.469-.881 4.265-3.27 4.576-6.087.676-6.147 2.096-21.17.673-27.882-.37-1.751-1.117-2.825-2.282-3.283-2.796-1.096-7.552 1.566-9.147 2.684l-1.606 1.128.155-1.957c.848-10.696-4.447-20.557-12.592-23.444-6.502-2.309-13.021.485-14.26 1.069-3.826 1.799-5.946 5.103-7.493 7.516-1.205 1.879-2.005 3.108-3.274 2.886-3.173-.588-5.97-.88-8.364-.88z" fill="#000000" opacity="1" data-original="#000000" class=""></path><path d="m364.153 284.855-11.045-2.927.957-1.78 10.58 2.927zM348.039 298.387l.345-1.814 11.227 2.138-.346 1.814zM371.093 268.013l.403-1.802 15.47 3.459-.403 1.802zM408.201 291.128l.528-11.137 1.844.087-.528 11.137zM406.712 313.872l.223-8.133 1.847.05-.223 8.134zM368.128 276.328c-.593 2.837 3.816 3.763 4.41.921.592-2.838-3.816-3.764-4.41-.921zM364.975 294.106c-.593 2.838 3.816 3.763 4.41.921.592-2.838-3.817-3.763-4.41-.921zM362.026 311.927c-.593 2.838 3.816 3.763 4.41.921.593-2.837-3.817-3.763-4.41-.921z" fill="#000000" opacity="1" data-original="#000000" class=""></path></g></svg>